# xmcd
#
# Track frame offsets:
#	150
#	11980
#	30245
#	50662
#	62727
#	88217
#	106817
#	116250
#	137197
#	153427
#	173645
#	190110
#
# Disc length: 2827
#
# Revision: 2
# Processed by: cddbd v1.5.1PL0 Copyright (c) Steve Scherf et al.
# Submitted via: CDex 1.50beta9a
# Normalized: r1:DSETVAR1,TDELIM( - )
#
DISCID=980b090c
DTITLE=Various Artist - Jenny Craig - Soothing Moments
DYEAR=1999
DGENRE=New Age
TTITLE0=David Arkenstone - A Special Place
TTITLE1=Shadowfax - Angel's Flight
TTITLE2=Yanni - Before I Go
TTITLE3=Patrick O'Hearn - The Beauty Within
TTITLE4=Liz Story - Out of Time
TTITLE5=Mark Isham - Many Chinas
TTITLE6=Tim Story - Theme from "In Search of Angels"
TTITLE7=Scott Cossu - Gwenlaise
TTITLE8=Patrick O'Hearn - A Brief Repose
TTITLE9=Tim Story - A Conversation in the Rain
TTITLE10=Nightnoise - Night In That Land
TTITLE11=Mark Isham - Tibet Part II
EXTD=YEAR: 1999
EXTT0=
EXTT1=
EXTT2=
EXTT3=
EXTT4=
EXTT5=
EXTT6=
EXTT7=
EXTT8=
EXTT9=
EXTT10=
EXTT11=
PLAYORDER=
